<?xml version="1.0" standalone="no"?>
<!DOCTYPE svg PUBLIC "-//W3C//DTD SVG 20010904//EN"
 "http://www.w3.org/TR/2001/REC-SVG-20010904/DTD/svg10.dtd">
<svg version="1.0" xmlns="http://www.w3.org/2000/svg"
 width="633.000000pt" height="633.000000pt" viewBox="0 0 633.000000 633.000000"
 preserveAspectRatio="xMidYMid meet">
<metadata>
Created by potrace 1.11, written by Peter Selinger 2001-2013
</metadata>
<g transform="translate(0.000000,633.000000) scale(0.100000,-0.100000)"
fill="#000000" stroke="none">
<path d="M2880 6313 c-635 -65 -1203 -296 -1700 -692 -126 -100 -375 -350
-480 -481 -311 -389 -534 -864 -630 -1340 -83 -412 -89 -763 -19 -1178 84
-501 313 -1010 640 -1424 105 -133 374 -402 509 -508 744 -590 1688 -812 2625
-619 1212 251 2193 1241 2440 2464 46 227 59 363 59 630 0 266 -12 395 -59
628 -156 771 -600 1458 -1250 1932 -433 316 -954 518 -1495 580 -123 14 -533
19 -640 8z m475 -253 c610 -44 1163 -260 1629 -634 853 -686 1243 -1772 1025
-2854 -28 -143 -78 -311 -124 -418 l-39 -92 -40 5 c-43 6 -102 19 -221 52 -38
10 -88 21 -110 25 -22 3 -49 8 -60 11 -11 3 -54 14 -95 25 -41 11 -127 25
-190 30 -63 6 -135 17 -160 25 -108 33 -186 49 -345 71 -60 8 -144 23 -185 34
-74 19 -197 37 -315 45 -72 6 -211 20 -282 30 -62 9 -92 2 -130 -28 -28 -24
-153 -49 -248 -51 -22 -1 -45 -5 -52 -9 -7 -4 -20 4 -32 22 l-21 28 29 54 c16
30 39 73 52 96 19 35 29 44 58 48 20 3 70 13 111 21 41 9 104 22 140 29 36 7
91 24 122 38 66 30 212 140 246 186 30 41 58 46 112 22 25 -11 61 -21 80 -21
52 -1 106 -30 190 -102 77 -66 109 -88 130 -88 7 0 10 7 6 15 -4 13 0 12 26
-2 67 -39 80 -45 84 -40 6 6 -32 83 -45 91 -5 4 -24 25 -43 49 l-33 42 43 -35
c51 -41 94 -70 105 -70 4 0 7 11 7 25 0 14 -5 25 -11 25 -15 0 -70 63 -60 70
19 11 -1 58 -30 70 -15 7 -34 19 -40 27 -11 12 -9 13 12 9 74 -16 203 -40 269
-51 283 -47 455 -80 515 -101 103 -34 153 -40 161 -21 4 12 14 15 35 10 25 -5
28 -3 22 12 -4 13 -3 16 6 11 17 -11 73 13 64 27 -14 23 -9 57 10 63 14 4 16
9 8 17 -17 17 -13 27 9 27 25 0 36 25 20 45 -10 12 -9 15 5 15 9 0 19 9 22 20
3 13 14 20 29 20 13 0 24 4 24 10 0 28 -226 162 -396 235 -71 31 -148 67 -171
80 -23 13 -59 29 -79 35 -20 7 -62 27 -94 45 -32 18 -84 43 -115 54 -74 28
-127 52 -248 112 -55 27 -103 49 -108 49 -6 0 -45 16 -89 36 -59 27 -85 45
-99 69 -10 18 -51 59 -90 91 -66 55 -72 63 -91 129 -12 39 -32 95 -45 125 -13
30 -30 78 -38 106 -27 93 -122 220 -242 326 -116 102 -299 346 -369 494 -19
40 -58 101 -85 135 -28 34 -48 66 -45 70 2 4 0 10 -5 13 -5 3 -8 19 -7 36 1
16 -2 30 -7 30 -6 0 -3 8 6 18 20 22 22 39 5 45 -8 3 -3 12 15 26 38 31 53 61
36 72 -11 6 -8 14 14 37 33 34 34 45 5 37 -17 -5 -11 4 20 30 43 37 54 65 26
65 -10 0 -14 7 -12 23 3 19 -1 22 -26 20 -22 -2 -26 1 -18 9 18 18 14 48 -5
48 -16 0 -275 -171 -373 -246 -25 -19 -76 -58 -113 -87 -38 -29 -79 -61 -91
-72 -13 -11 -52 -42 -87 -70 -92 -73 -250 -227 -245 -240 2 -6 -17 -17 -42
-25 -41 -12 -43 -14 -27 -27 16 -11 16 -13 3 -13 -9 0 -25 -3 -35 -7 -16 -6
-16 -5 -4 11 13 16 12 17 -15 10 -16 -4 -31 -10 -34 -13 -3 -3 -14 -6 -25 -5
-11 0 -30 -6 -43 -13 -12 -8 -27 -11 -32 -8 -5 3 -17 -3 -27 -14 -9 -11 -20
-18 -25 -15 -4 3 -8 0 -8 -7 0 -7 -3 -10 -6 -6 -3 3 -20 -7 -37 -23 l-31 -29
20 -28 c11 -15 57 -46 102 -68 45 -22 86 -45 91 -50 7 -7 -8 -20 -44 -39 -30
-16 -55 -32 -55 -36 0 -14 -46 -57 -83 -75 -42 -22 -107 -94 -107 -119 0 -8
-5 -27 -12 -43 -14 -34 -19 -53 -20 -73 0 -8 -5 -20 -9 -26 -5 -6 -10 -31 -12
-55 -2 -25 -13 -74 -24 -109 -60 -193 -71 -244 -83 -395 -10 -134 4 -352 29
-455 32 -127 98 -254 183 -350 141 -161 158 -170 485 -254 46 -11 83 -26 83
-32 0 -6 -18 -39 -39 -75 -34 -56 -43 -64 -68 -62 -15 1 -49 -3 -76 -8 -30 -6
-54 -5 -65 1 -36 21 -166 70 -240 90 -131 36 -193 60 -309 117 l-112 55 -16
54 c-19 66 -45 85 -129 95 -34 4 -84 17 -111 29 -28 12 -61 22 -75 23 -14 1
-46 15 -72 30 -27 16 -84 36 -130 46 -46 10 -92 22 -103 28 -11 6 -56 19 -100
27 -44 9 -129 30 -189 47 -59 17 -161 37 -225 44 -64 7 -153 25 -199 39 -46
14 -112 31 -148 38 l-64 11 0 73 c0 148 49 444 106 634 182 613 543 1135 1049
1515 553 416 1251 624 1930 575z m-2980 -3175 c33 -1 69 -6 80 -12 11 -6 56
-16 100 -21 156 -22 289 -43 297 -48 15 -10 161 -44 186 -44 12 0 78 -13 145
-29 67 -16 144 -32 172 -36 42 -6 57 -14 90 -50 46 -49 107 -85 185 -110 30
-10 72 -29 93 -42 22 -14 47 -25 57 -26 10 -1 18 -4 18 -7 -2 -18 4 -26 20
-27 9 -1 59 -18 109 -37 51 -20 112 -38 135 -40 24 -3 86 -18 138 -34 52 -17
123 -38 157 -47 35 -10 60 -21 58 -26 -8 -12 17 -60 29 -56 6 2 12 13 14 24 3
23 33 22 87 -2 17 -7 49 -19 73 -27 23 -7 42 -18 42 -25 0 -16 29 -21 64 -11
16 4 37 3 47 -2 31 -17 265 -31 447 -28 94 2 172 0 172 -5 0 -4 20 -6 45 -5
25 2 45 8 45 14 0 8 34 13 99 16 54 2 105 9 112 15 17 14 257 20 309 9 19 -4
60 -18 90 -31 69 -28 135 -49 230 -72 41 -10 81 -24 88 -30 7 -7 22 -13 33
-13 10 0 19 -3 19 -8 0 -19 158 -54 330 -72 41 -5 93 -13 115 -18 22 -6 101
-17 175 -27 74 -9 180 -27 235 -41 55 -13 132 -28 170 -34 39 -6 107 -19 152
-28 l82 -18 -62 -102 c-175 -289 -420 -570 -677 -776 -707 -566 -1647 -769
-2525 -546 -1085 276 -1918 1150 -2135 2240 -16 80 -32 172 -35 205 -3 33 -8
70 -11 83 -4 21 -2 23 18 16 13 -4 50 -8 83 -9z m2539 -285 c64 -11 196 -25
295 -32 l180 -12 -26 -47 c-46 -85 -80 -119 -119 -119 -19 0 -53 -9 -75 -21
-43 -21 -38 -21 -237 -4 -82 8 -117 18 -154 47 -50 41 -53 61 -16 140 17 38
32 68 33 68 2 0 55 -9 119 -20z"/>
<path d="M3220 1796 c-77 -10 -85 -13 -88 -34 -2 -12 -8 -20 -13 -17 -14 9
-29 -41 -29 -101 0 -43 4 -56 20 -66 11 -7 20 -16 20 -21 0 -4 -14 3 -31 15
-23 18 -44 23 -87 23 -72 0 -126 -27 -169 -84 -18 -23 -33 -39 -33 -34 0 4
-10 24 -23 43 l-22 35 -6 -70 -6 -70 1 80 1 80 -32 3 c-18 2 -49 -6 -72 -17
-50 -26 -48 -26 -55 4 -7 28 -6 28 -101 11 -69 -12 -70 -12 -68 -41 1 -17 -1
-23 -3 -14 -7 24 -62 13 -67 -15 -2 -11 -3 -4 -1 16 5 41 12 37 -90 58 -51 11
-65 5 -66 -28 0 -8 -10 -6 -28 8 -93 69 -242 27 -296 -81 -13 -27 -26 -44 -29
-37 -2 7 -12 -14 -21 -47 -9 -33 -20 -72 -25 -86 -5 -17 -4 -35 6 -53 25 -48
6 -27 -36 39 l-40 65 -45 -31 c-81 -58 -176 -49 -225 20 -26 36 -28 52 -3 21
l18 -23 -4 36 c-6 48 14 102 46 128 34 27 96 20 150 -16 62 -42 89 -33 141 51
46 76 42 104 -23 169 -42 42 -67 58 -112 71 -76 22 -193 16 -250 -14 -54 -28
-118 -93 -145 -149 -12 -26 -30 -54 -40 -64 -9 -9 -22 -48 -29 -90 -23 -136
18 -267 112 -355 67 -63 125 -86 228 -91 104 -6 174 17 244 78 l47 41 48 -45
c67 -63 142 -86 215 -65 28 8 62 11 76 7 41 -11 140 -10 163 3 12 6 28 20 36
30 13 19 14 19 42 -8 25 -23 40 -29 94 -32 77 -5 119 9 134 46 6 15 10 69 8
120 -2 103 3 112 60 112 34 0 33 2 53 -87 16 -73 66 -135 135 -168 49 -25 62
-27 122 -21 90 9 97 9 175 0 78 -8 110 -2 138 28 l20 22 25 -24 c21 -20 39
-25 94 -28 76 -5 125 13 136 48 8 26 18 25 30 -2 14 -32 52 -48 117 -48 112 0
128 24 128 191 0 66 4 109 10 109 6 0 13 1 18 3 4 1 9 -57 12 -130 6 -167 7
-168 126 -168 78 0 87 2 105 24 10 13 19 36 19 52 0 42 15 43 48 1 40 -50 109
-83 169 -83 265 2 301 5 327 30 l26 24 26 -24 c23 -21 34 -24 111 -24 127 0
120 -22 125 362 4 299 0 362 -23 348 -5 -4 -9 5 -9 20 l0 26 -97 -3 -98 -3 2
-45 c0 -25 -1 -33 -4 -17 -2 15 -8 27 -13 27 -16 0 -22 -43 -15 -116 7 -77 1
-119 -17 -108 -6 4 -14 0 -19 -7 -6 -10 -9 -6 -9 13 0 23 -6 29 -37 37 -93 23
-101 23 -113 1 l-11 -21 -35 22 c-25 15 -51 21 -89 21 -100 -1 -175 -53 -209
-148 -12 -31 -15 -34 -15 -15 -1 13 -4 21 -8 17 -4 -4 -15 8 -25 26 -17 33
-17 30 -18 -154 0 -103 -3 -189 -7 -191 -5 -3 -8 84 -8 194 l0 199 -32 31
c-26 27 -41 33 -86 37 -47 4 -64 0 -116 -27 l-61 -31 0 25 c0 13 -4 26 -9 29
-5 3 -45 0 -90 -6 -77 -11 -81 -13 -82 -38 0 -14 -3 -20 -5 -13 -3 7 -12 9
-20 6 -20 -7 -27 19 -16 61 10 36 -5 128 -16 98 -2 -8 -12 3 -22 27 -14 31
-26 42 -52 49 -91 24 -160 -54 -112 -128 l16 -25 -21 24 c-12 13 -21 32 -21
43 0 16 -3 18 -14 9 -11 -9 -15 -4 -20 29 -3 23 -13 43 -21 46 -8 4 -15 12
-15 19 0 21 -9 22 -100 11z m97 -113 c-2 -16 -4 -5 -4 22 0 28 2 40 4 28 2
-13 2 -35 0 -50z m1660 -155 c-2 -29 -3 -6 -3 52 0 58 1 81 3 53 2 -29 2 -77
0 -105z m-1402 102 c-10 -11 -22 -20 -26 -20 -5 0 2 10 14 23 27 28 38 25 12
-3z m-1785 0 c-6 -11 -13 -20 -16 -20 -2 0 0 9 6 20 6 11 13 20 16 20 2 0 0
-9 -6 -20z m3007 -327 c-1 -65 -3 -12 -3 117 0 129 2 182 3 118 2 -65 2 -171
0 -235z m-1279 300 c-10 -2 -26 -2 -35 0 -10 3 -2 5 17 5 19 0 27 -2 18 -5z
m-1758 -24 c-16 -29 -39 -35 -58 -14 -16 16 -16 16 6 4 22 -13 25 -12 39 9 19
28 27 29 13 1z m1633 -3 c9 3 11 -7 8 -38 -4 -35 -6 -38 -9 -15 -3 28 -4 28
-23 11 -18 -17 -19 -16 -19 18 0 40 10 55 22 34 5 -8 14 -13 21 -10z m-1931
-25 c-9 -16 -18 -28 -21 -26 -4 5 27 55 34 55 2 0 -4 -13 -13 -29z m2076 22
c-21 -2 -55 -2 -75 0 -21 2 -4 4 37 4 41 0 58 -2 38 -4z m60 -24 c-3 -8 -7 -3
-11 10 -4 17 -3 21 5 13 5 -5 8 -16 6 -23z m-2351 -21 c-3 -7 -5 -2 -5 12 0
14 2 19 5 13 2 -7 2 -19 0 -25z m2340 -80 c-2 -18 -4 -6 -4 27 0 33 2 48 4 33
2 -15 2 -42 0 -60z m-2150 30 c-3 -7 -5 -2 -5 12 0 14 2 19 5 13 2 -7 2 -19 0
-25z m2230 -5 c-3 -10 -5 -4 -5 12 0 17 2 24 5 18 2 -7 2 -21 0 -30z m-2430
-50 c-2 -16 -4 -5 -4 22 0 28 2 40 4 28 2 -13 2 -35 0 -50z m1200 15 c-2 -13
-4 -5 -4 17 -1 22 1 32 4 23 2 -10 2 -28 0 -40z m870 -55 c-2 -21 -4 -6 -4 32
0 39 2 55 4 38 2 -18 2 -50 0 -70z m1400 35 c-2 -13 -4 -3 -4 22 0 25 2 35 4
23 2 -13 2 -33 0 -45z m-1284 -291 c9 -6 8 -7 -3 -4 -13 3 -15 32 -15 178 l-1
174 3 -170 c3 -119 7 -172 16 -178z m-616 311 c-3 -8 -6 -5 -6 6 -1 11 2 17 5
13 3 -3 4 -12 1 -19z m-1370 -25 c-3 -10 -5 -4 -5 12 0 17 2 24 5 18 2 -7 2
-21 0 -30z m681 30 c-10 -2 -26 -2 -35 0 -10 3 -2 5 17 5 19 0 27 -2 18 -5z
m229 -135 c-2 -29 -3 -8 -3 47 0 55 1 79 3 53 2 -26 2 -71 0 -100z m763 117
c13 -14 22 -26 19 -28 -2 -1 -16 10 -31 25 -15 15 -23 28 -19 28 4 0 18 -11
31 -25z m1363 18 c-7 -2 -21 -2 -30 0 -10 3 -4 5 12 5 17 0 24 -2 18 -5z
m-2413 -6 c0 -2 -10 -12 -22 -23 l-23 -19 19 23 c18 21 26 27 26 19z m101 -14
c13 -16 12 -17 -3 -4 -17 13 -22 21 -14 21 2 0 10 -8 17 -17z m1207 -128 c0
-33 -4 -71 -8 -85 -5 -15 -8 26 -8 105 0 97 3 118 9 85 4 -25 7 -72 7 -105z
m531 142 c-2 -1 -15 -11 -29 -22 l-25 -20 19 23 c11 12 24 22 29 22 6 0 8 -1
6 -3z m59 -22 c-3 -3 -9 2 -12 12 -6 14 -5 15 5 6 7 -7 10 -15 7 -18z m-2111
-92 c-2 -21 -4 -6 -4 32 0 39 2 55 4 38 2 -18 2 -50 0 -70z m950 5 c-2 -18 -4
-4 -4 32 0 36 2 50 4 33 2 -18 2 -48 0 -65z m-60 66 c-3 -3 -12 -4 -19 -1 -8
3 -5 6 6 6 11 1 17 -2 13 -5z m1246 -267 c6 -2 5 -3 -3 -3 -13 1 -15 24 -15
139 l-1 137 3 -134 c3 -95 7 -136 16 -139z m-2736 231 c-3 -7 -5 -2 -5 12 0
14 2 19 5 13 2 -7 2 -19 0 -25z m775 -7 c2 -22 0 -37 -4 -35 -8 5 -11 74 -4
74 2 0 6 -18 8 -39z m955 -8 c-3 -10 -5 -2 -5 17 0 19 2 27 5 18 2 -10 2 -26
0 -35z m1560 25 c-3 -8 -6 -5 -6 6 -1 11 2 17 5 13 3 -3 4 -12 1 -19z m-1400
-20 c-3 -7 -5 -2 -5 12 0 14 2 19 5 13 2 -7 2 -19 0 -25z m556 -221 c9 -6 8
-7 -3 -4 -12 3 -15 27 -15 133 l-1 129 3 -125 c3 -83 8 -127 16 -133z m-1076
100 c-2 -23 -3 -1 -3 48 0 50 1 68 3 42 2 -26 2 -67 0 -90z m1580 111 c-3 -8
-6 -5 -6 6 -1 11 2 17 5 13 3 -3 4 -12 1 -19z m-2070 0 c32 -41 19 -68 -31
-68 -23 0 -71 29 -48 30 6 0 12 6 12 13 0 32 48 49 67 25z m951 0 c7 -7 12
-21 12 -32 0 -17 2 -18 18 -5 10 8 7 4 -6 -8 -23 -23 -47 -28 -75 -17 -14 5
-14 20 -1 62 4 15 36 16 52 0z m1407 -4 c9 -9 14 -23 11 -31 -5 -11 -1 -11 17
-3 21 11 21 10 -2 -9 -30 -27 -82 -27 -112 -1 -17 14 -19 18 -6 14 9 -3 17 -1
17 4 0 15 29 42 45 42 7 0 21 -7 30 -16z m52 -6 c-3 -8 -6 -5 -6 6 -1 11 2 17
5 13 3 -3 4 -12 1 -19z m-2366 -21 c-10 -9 -11 -8 -5 6 3 10 9 15 12 12 3 -3
0 -11 -7 -18z m226 -39 c-2 -13 -4 -3 -4 22 0 25 2 35 4 23 2 -13 2 -33 0 -45z
m2310 -81 c-2 -23 -3 -1 -3 48 0 50 1 68 3 42 2 -26 2 -67 0 -90z m-3428 93
c11 -24 11 -24 -3 -6 -9 11 -16 24 -16 30 0 12 5 7 19 -24z m2928 -2 c-3 -8
-6 -5 -6 6 -1 11 2 17 5 13 3 -3 4 -12 1 -19z m67 -107 c11 -13 15 -21 8 -17
-18 10 -72 86 -72 100 0 6 10 -5 21 -24 12 -19 31 -46 43 -59z m-2963 62 c13
-16 12 -17 -3 -4 -17 13 -22 21 -14 21 2 0 10 -8 17 -17z m563 1 c3 -8 2 -12
-4 -9 -6 3 -10 10 -10 16 0 14 7 11 14 -7z m991 -54 l30 -35 -28 25 c-16 14
-33 34 -39 45 -11 21 -10 20 37 -35z m-1055 37 c0 -2 -17 -19 -37 -38 l-38
-34 34 38 c33 34 41 42 41 34z m1507 -59 c-2 -13 -4 -3 -4 22 0 25 2 35 4 23
2 -13 2 -33 0 -45z m266 -29 c-4 -4 -6 15 -3 44 l5 52 3 -44 c2 -24 0 -47 -5
-52z m-2242 64 c13 -16 12 -17 -3 -4 -17 13 -22 21 -14 21 2 0 10 -8 17 -17z
m3632 -64 c-5 -5 -6 11 -3 34 4 41 5 41 8 8 2 -18 0 -37 -5 -42z m-3592 34
c13 -16 12 -17 -3 -4 -17 13 -22 21 -14 21 2 0 10 -8 17 -17z m976 -15 c-3 -7
-5 -2 -5 12 0 14 2 19 5 13 2 -7 2 -19 0 -25z m-416 5 c13 -16 12 -17 -3 -4
-17 13 -22 21 -14 21 2 0 10 -8 17 -17z m239 7 c0 -5 -5 -10 -11 -10 -5 0 -7
5 -4 10 3 6 8 10 11 10 2 0 4 -4 4 -10z m984 -33 c7 -6 6 -7 -4 -4 -8 2 -16
14 -17 28 -1 19 -1 20 4 4 3 -11 10 -24 17 -28z m1376 19 c5 -14 17 -26 27
-29 15 -3 15 -4 -2 -3 -11 1 -24 11 -30 23 -11 21 -12 21 -30 5 -19 -17 -19
-17 -1 6 24 27 24 27 36 -2z m-3090 -16 c8 -5 11 -10 5 -10 -5 0 -17 5 -25 10
-8 5 -10 10 -5 10 6 0 17 -5 25 -10z m572 -10 l43 -9 -44 3 c-24 3 -49 10 -55
17 -8 9 -8 10 1 5 7 -4 32 -11 55 -16z m198 -3 c22 -4 21 -5 -4 -4 -17 1 -31
9 -33 17 -3 10 -2 11 4 4 4 -7 19 -14 33 -17z m251 5 c-7 -2 -18 1 -23 6 -8 8
-4 9 13 5 13 -4 18 -8 10 -11z m2344 0 c-3 -3 -11 0 -18 7 -9 10 -8 11 6 5 10
-3 15 -9 12 -12z m-1848 2 c-3 -3 -12 -4 -19 -1 -8 3 -5 6 6 6 11 1 17 -2 13
-5z m1503 -4 c-8 -5 -24 -9 -35 -9 -16 1 -16 2 5 9 35 11 48 11 30 0z m-2973
-6 c-3 -3 -12 -4 -19 -1 -8 3 -5 6 6 6 11 1 17 -2 13 -5z m600 0 c-3 -3 -12
-4 -19 -1 -8 3 -5 6 6 6 11 1 17 -2 13 -5z m930 0 c-3 -3 -12 -4 -19 -1 -8 3
-5 6 6 6 11 1 17 -2 13 -5z m1376 -1 c-7 -2 -21 -2 -30 0 -10 3 -4 5 12 5 17
0 24 -2 18 -5z m-2810 -10 c-13 -2 -33 -2 -45 0 -13 2 -3 4 22 4 25 0 35 -2
23 -4z"/>
</g>
</svg>
